<svg xmlns="http://www.w3.org/2000/svg" viewBox="0 0 64 80" x="0px" y="0px"><title>admin, user, edit, config</title><g><path d="M39.752,38.894a1.5,1.5,0,0,0-.831.67l-2.162,3.709a1.5,1.5,0,0,0-.174,1.052A6.248,6.248,0,0,0,37.9,47.147l0,.484A5.816,5.816,0,0,0,36.642,50.1H8.333a1,1,0,0,1-.99-1.147,19.8,19.8,0,0,1,5.2-11.059c3.381-3.362,8.21-5,14.366-4.892,6.523-.11,11.517,1.745,14.919,5.54A7.369,7.369,0,0,0,39.752,38.894ZM56.3,49.863a4.371,4.371,0,0,1,.34.76l-1.53,2.62a3.96,3.96,0,0,1-.819.08,1.5,1.5,0,0,0-1.641-.1l-1.78,1.02a1.5,1.5,0,0,0-.75,1.46,3.526,3.526,0,0,1-.49.67l-3.029-.01a4.343,4.343,0,0,1-.481-.68,1.5,1.5,0,0,0-.73-1.47l-1.78-1.03a1.5,1.5,0,0,0-1.639.08,3.925,3.925,0,0,1-.821-.08l-1.51-2.63a4.29,4.29,0,0,1,.35-.76,1.481,1.481,0,0,0,.9-1.37l.01-2.05a1.479,1.479,0,0,0-.89-1.38,4.292,4.292,0,0,1-.34-.75l1.53-2.62a3.378,3.378,0,0,1,.82-.08,1.5,1.5,0,0,0,1.641.1l1.789-1.02a1.506,1.506,0,0,0,.74-1.46,3.937,3.937,0,0,1,.49-.68l3.03.02a3.781,3.781,0,0,1,.48.67,1.5,1.5,0,0,0,.73,1.47l1.78,1.04a1.5,1.5,0,0,0,1.64-.09,3.492,3.492,0,0,1,.821.09l1.509,2.63a3.837,3.837,0,0,1-.35.75,1.491,1.491,0,0,0-.9,1.37l-.009,2.06A1.464,1.464,0,0,0,56.3,49.863Zm-6.79-4.76a2.691,2.691,0,1,0,.971,3.68A2.695,2.695,0,0,0,49.508,45.1ZM26.885,28.953A10.663,10.663,0,1,0,16.221,18.29,10.675,10.675,0,0,0,26.885,28.953Z"/></g><text x="0" y="79" fill="#000000" font-size="5px" font-weight="bold" font-family="'Helvetica Neue', Helvetica, Arial-Unicode, Arial, Sans-serif">Created by The Icon Z</text><text x="0" y="84" fill="#000000" font-size="5px" font-weight="bold" font-family="'Helvetica Neue', Helvetica, Arial-Unicode, Arial, Sans-serif">from the Noun Project</text></svg>