<svg width="44" height="44" viewBox="0 0 44 44" fill="none" xmlns="http://www.w3.org/2000/svg">
<g id="mingcute:delete-2-fill" clip-path="url(#clip0_1302_63)">
<g id="Group">
<path id="Vector" fill-rule="evenodd" clip-rule="evenodd" d="M26.18 3.66666C26.9496 3.66686 27.6995 3.90918 28.3237 4.3593C28.9479 4.80943 29.4147 5.44453 29.6578 6.17466L30.6533 9.16666H36.6667C37.1529 9.16666 37.6192 9.35981 37.963 9.70363C38.3068 10.0474 38.5 10.5138 38.5 11C38.5 11.4862 38.3068 11.9525 37.963 12.2964C37.6192 12.6402 37.1529 12.8333 36.6667 12.8333L36.6612 12.9635L35.0717 35.2257C34.9725 36.6128 34.3515 37.9108 33.3337 38.8585C32.316 39.8062 30.977 40.3332 29.5863 40.3333H14.4137C13.023 40.3332 11.684 39.8062 10.6663 38.8585C9.64851 37.9108 9.02753 36.6128 8.92833 35.2257L7.33883 12.9617C7.33552 12.919 7.33368 12.8762 7.33333 12.8333C6.8471 12.8333 6.38079 12.6402 6.03697 12.2964C5.69315 11.9525 5.5 11.4862 5.5 11C5.5 10.5138 5.69315 10.0474 6.03697 9.70363C6.38079 9.35981 6.8471 9.16666 7.33333 9.16666H13.3467L14.3422 6.17466C14.5854 5.44424 15.0525 4.80892 15.677 4.35877C16.3016 3.90862 17.052 3.66647 17.8218 3.66666H26.18ZM16.5 18.3333C16.051 18.3334 15.6175 18.4982 15.282 18.7966C14.9464 19.095 14.732 19.5062 14.6795 19.9522L14.6667 20.1667V31.1667C14.6672 31.6339 14.8461 32.0834 15.1669 32.4232C15.4877 32.7629 15.9261 32.9674 16.3926 32.9948C16.859 33.0222 17.3184 32.8704 17.6767 32.5705C18.035 32.2706 18.2653 31.8452 18.3205 31.3812L18.3333 31.1667V20.1667C18.3333 19.6804 18.1402 19.2141 17.7964 18.8703C17.4525 18.5265 16.9862 18.3333 16.5 18.3333ZM27.5 18.3333C27.0138 18.3333 26.5475 18.5265 26.2036 18.8703C25.8598 19.2141 25.6667 19.6804 25.6667 20.1667V31.1667C25.6667 31.6529 25.8598 32.1192 26.2036 32.463C26.5475 32.8068 27.0138 33 27.5 33C27.9862 33 28.4525 32.8068 28.7964 32.463C29.1402 32.1192 29.3333 31.6529 29.3333 31.1667V20.1667C29.3333 19.6804 29.1402 19.2141 28.7964 18.8703C28.4525 18.5265 27.9862 18.3333 27.5 18.3333ZM26.18 7.33332H17.82L17.2095 9.16666H26.7905L26.18 7.33332Z" fill="#FF8585"/>
</g>
</g>
<defs>
<clipPath id="clip0_1302_63">
<rect width="44" height="44" fill="white"/>
</clipPath>
</defs>
</svg>
